<svg xmlns="http://www.w3.org/2000/svg" version="1.1" viewBox="-5.0 -10.0 110.0 135.0">
 <path d="m83.402 49.926c0-1.2656 1.0273-2.2969 2.2969-2.2969 1.2656 0 2.2969 1.0273 2.2969 2.2969v28.469c0 5.6719-2.3086 10.816-6.0391 14.543-3.7305 3.7305-8.8711 6.0391-14.543 6.0391h-45.809c-5.6719 0-10.816-2.3086-14.543-6.0391-3.7305-3.7305-6.0391-8.875-6.0391-14.543v-45.809c0-5.6719 2.3086-10.816 6.0391-14.543 3.7305-3.7305 8.875-6.0391 14.543-6.0391h28.469c1.2656 0 2.2969 1.0273 2.2969 2.2969s-1.0273 2.2969-2.2969 2.2969h-28.469c-4.4023 0-8.3984 1.7969-11.297 4.6914-2.8984 2.8984-4.6953 6.8945-4.6953 11.297v8.3672c0 1.6328 0.58203 3.0391 1.7383 4.1953l47.504 47.504c1.1562 1.1562 2.5586 1.7383 4.1953 1.7383h8.3672c4.4023 0 8.3984-1.7969 11.297-4.6953 2.8945-2.8984 4.6914-6.8945 4.6914-11.297v-28.469zm15.574-17.133c0 1.2695-1.0273 2.2969-2.2969 2.2969-1.2695 0-2.2969-1.0273-2.2969-2.2969v-17.168c0-1.9297-0.55078-3.7305-1.5039-5.2617l-38.359 38.359c-0.89844 0.89844-2.3477 0.89844-3.2461 0-0.89844-0.89844-0.89844-2.3477 0-3.2461l38.359-38.359c-1.5312-0.94922-3.332-1.5039-5.2617-1.5039h-17.168c-1.2695 0-2.2969-1.0273-2.2969-2.2969 0-1.2656 1.0273-2.2969 2.2969-2.2969h17.168c4.0234 0 7.6758 1.6367 10.316 4.2852 2.6445 2.6445 4.2852 6.293 4.2852 10.316v17.168z"/>
<text x="0.0" y="117.5" font-size="5.0" font-weight="bold" font-family="Arbeit Regular, Helvetica, Arial-Unicode, Arial, Sans-serif" fill="#000000">Created by UNKNOWN</text><text x="0.0" y="122.5" font-size="5.0" font-weight="bold" font-family="Arbeit Regular, Helvetica, Arial-Unicode, Arial, Sans-serif" fill="#000000">from Noun Project</text></svg>